HIERARCHY
ROOT hip
{
  OFFSET 0 0 0
  CHANNELS 6 Xposition Yposition Zposition Zrotation Yrotation Xrotation
  JOINT abdomen
  {
    OFFSET 0 20.6881 -0.73152
    CHANNELS 3 Zrotation Xrotation Yrotation
    JOINT chest
    {
      OFFSET 0 11.7043 -0.48768
      CHANNELS 3 Zrotation Xrotation Yrotation
      JOINT neck
      {
        OFFSET 0 22.1894 -2.19456
        CHANNELS 3 Zrotation Xrotation Yrotation
        JOINT head
        {
          OFFSET -0.24384 7.07133 1.2192
          CHANNELS 3 Zrotation Xrotation Yrotation
          JOINT leftEye
          {
            OFFSET 4.14528 8.04674 8.04672
            CHANNELS 3 Zrotation Xrotation Yrotation
            End Site
            {
              OFFSET 1 0 0
            }
          }
          JOINT rightEye
          {
            OFFSET -3.6576 8.04674 8.04672
            CHANNELS 3 Zrotation Xrotation Yrotation
            End Site
            {
              OFFSET 1 0 0
            }
          }
        }
      }
      JOINT rCollar
      {
        OFFSET -2.68224 19.2634 -4.8768
        CHANNELS 3 Zrotation Xrotation Yrotation
        JOINT rShldr
        {
          OFFSET -8.77824 -1.95073 1.46304
          CHANNELS 3 Zrotation Xrotation Yrotation
          JOINT rForeArm
          {
            OFFSET -28.1742 -1.7115 0.48768
            CHANNELS 3 Zrotation Xrotation Yrotation
            JOINT rHand
            {
              OFFSET -22.5879 0.773209 7.07136
              CHANNELS 3 Zrotation Xrotation Yrotation
              JOINT rThumb1
              {
                OFFSET -1.2192 -0.487915 3.41376
                CHANNELS 3 Zrotation Xrotation Yrotation
                JOINT rThumb2
                {
                  OFFSET -3.37035 -0.52449 3.41376
                  CHANNELS 3 Zrotation Xrotation Yrotation
                  End Site
                  {
                    OFFSET -1.78271 -1.18214 1.43049
                  }
                }
              }
              JOINT rIndex1
              {
                OFFSET -7.75947 0.938293 5.60832
                CHANNELS 3 Zrotation Xrotation Yrotation
                JOINT rIndex2
                {
                  OFFSET -2.54057 -0.884171 1.56538
                  CHANNELS 3 Zrotation Xrotation Yrotation
                  End Site
                  {
                    OFFSET -1.62519 -0.234802 1.16502
                  }
                }
              }
              JOINT rMid1
              {
                OFFSET -8.24714 1.18213 3.41376
                CHANNELS 3 Zrotation Xrotation Yrotation
                JOINT rMid2
                {
                  OFFSET -3.10165 -0.590103 1.0647
                  CHANNELS 3 Zrotation Xrotation Yrotation
                  End Site
                  {
                    OFFSET -2.48547 -0.328903 0.83742
                  }
                }
              }
              JOINT rRing1
              {
                OFFSET -8.82822 0.546677 1.51678
                CHANNELS 3 Zrotation Xrotation Yrotation
                JOINT rRing2
                {
                  OFFSET -2.60934 -0.819778 -0.0198488
                  CHANNELS 3 Zrotation Xrotation Yrotation
                  End Site
                  {
                    OFFSET -2.33842 -0.294052 0.168128
                  }
                }
              }
              JOINT rPinky1
              {
                OFFSET -8.27202 -0.0477905 -0.4584
                CHANNELS 3 Zrotation Xrotation Yrotation
                JOINT rPinky2
                {
                  OFFSET -1.82734 -0.647385 -0.700984
                  CHANNELS 3 Zrotation Xrotation Yrotation
                  End Site
                  {
                    OFFSET -1.69225 -0.51767 -0.607171
                  }
                }
              }
            }
          }
        }
      }
      JOINT lCollar
      {
        OFFSET 2.68224 19.2634 -4.8768
        CHANNELS 3 Zrotation Xrotation Yrotation
        JOINT lShldr
        {
          OFFSET 8.77824 -1.95073 1.46304
          CHANNELS 3 Zrotation Xrotation Yrotation
          JOINT lForeArm
          {
            OFFSET 28.1742 -1.7115 0.48768
            CHANNELS 3 Zrotation Xrotation Yrotation
            JOINT lHand
            {
              OFFSET 22.5879 0.773209 7.07136
              CHANNELS 3 Zrotation Xrotation Yrotation
              JOINT lThumb1
              {
                OFFSET 1.2192 -0.487915 3.41376
                CHANNELS 3 Zrotation Xrotation Yrotation
                JOINT lThumb2
                {
                  OFFSET 3.37035 -0.52449 3.41376
                  CHANNELS 3 Zrotation Xrotation Yrotation
                  End Site
                  {
                    OFFSET 1.78271 -1.18214 1.43049
                  }
                }
              }
              JOINT lIndex1
              {
                OFFSET 7.75947 0.938293 5.60832
                CHANNELS 3 Zrotation Xrotation Yrotation
                JOINT lIndex2
                {
                  OFFSET 2.54057 -0.884171 1.56538
                  CHANNELS 3 Zrotation Xrotation Yrotation
                  End Site
                  {
                    OFFSET 1.62519 -0.234802 1.16502
                  }
                }
              }
              JOINT lMid1
              {
                OFFSET 8.24714 1.18213 3.41376
                CHANNELS 3 Zrotation Xrotation Yrotation
                JOINT lMid2
                {
                  OFFSET 3.10165 -0.590103 1.0647
                  CHANNELS 3 Zrotation Xrotation Yrotation
                  End Site
                  {
                    OFFSET 2.48547 -0.328903 0.83742
                  }
                }
              }
              JOINT lRing1
              {
                OFFSET 8.82822 0.546677 1.51678
                CHANNELS 3 Zrotation Xrotation Yrotation
                JOINT lRing2
                {
                  OFFSET 2.60934 -0.819778 -0.0198488
                  CHANNELS 3 Zrotation Xrotation Yrotation
                  End Site
                  {
                    OFFSET 2.33842 -0.294052 0.168128
                  }
                }
              }
              JOINT lPinky1
              {
                OFFSET 8.27202 -0.0477905 -0.4584
                CHANNELS 3 Zrotation Xrotation Yrotation
                JOINT lPinky2
                {
                  OFFSET 1.82734 -0.647385 -0.700984
                  CHANNELS 3 Zrotation Xrotation Yrotation
                  End Site
                  {
                    OFFSET 1.69225 -0.51767 -0.607171
                  }
                }
              }
            }
          }
        }
      }
    }
  }
  JOINT rButtock
  {
    OFFSET -8.77824 4.35084 1.2192
    CHANNELS 3 Zrotation Xrotation Yrotation
    JOINT rThigh
    {
      OFFSET 0 -1.70687 -2.19456
      CHANNELS 3 Zrotation Xrotation Yrotation
      JOINT rShin
      {
        OFFSET 0 -36.8199 0.73152
        CHANNELS 3 Zrotation Xrotation Yrotation
        JOINT rFoot
        {
          OFFSET 0.73152 -45.1104 -5.12064
          CHANNELS 3 Zrotation Xrotation Yrotation
          End Site
          {
            OFFSET -1.1221 -3.69964 12.103
          }
        }
      }
    }
  }
  JOINT lButtock
  {
    OFFSET 8.77824 4.35084 1.2192
    CHANNELS 3 Zrotation Xrotation Yrotation
    JOINT lThigh
    {
      OFFSET 0 -1.70687 -2.19456
      CHANNELS 3 Zrotation Xrotation Yrotation
      JOINT lShin
      {
        OFFSET 0 -36.8199 0.73152
        CHANNELS 3 Zrotation Xrotation Yrotation
        JOINT lFoot
        {
          OFFSET -0.73152 -45.1104 -5.12064
          CHANNELS 3 Zrotation Xrotation Yrotation
          End Site
          {
            OFFSET 1.1221 -3.69964 12.103
          }
        }
      }
    }
  }
}
MOTION
Frames:	9
Frame Time:	0.00833333
34.6076 81.9977 33.6091 -328.233 -86.9234 335.092 3.1712 -1.0232 -3.61066 2.84587 -0.729295 -1.01821 -8.00426 1.91443 -4.40786 10.5049 -35.3291 -4.31169 -0.0 0.0 0.0 -0.0 0.0 0.0 5.40549e-14 7.07954e-13 -5.35228e-14 66.8828 -45.8489 -17.067 -7.06138 -2.5381 12.3945 -0.415934 18.0276 2.62158 8.37116e-10 -1.45875e-09 1.71209e-09 1.47034e-09 -2.52261e-09 2.94533e-09 8.3713e-10 -1.45876e-09 1.71208e-09 7.73091 5.47488 0.417314 8.37119e-10 -1.45876e-09 1.71209e-09 2.90554 0.965183 0.102902 8.37129e-10 -1.45876e-09 1.71208e-09 10.2786 0.731801 0.0259123 8.37109e-10 -1.45876e-09 1.71209e-09 2.22167 -0.733487 -0.20892 5.40873e-14 7.0799e-13 -5.37713e-14 -79.1962 -7.16766 -1.43975 7.74277 -2.87845 -13.6312 3.71624 46.7359 -8.58784 2.04052e-09 -1.35559e-09 1.15572e-10 3.52041e-09 -2.38377e-09 1.2504e-10 2.04051e-09 -1.3556e-09 1.15569e-10 -7.73091 5.47488 -0.417314 2.04052e-09 -1.3556e-09 1.15572e-10 -2.90554 0.965183 -0.102902 2.04051e-09 -1.3556e-09 1.15572e-10 -10.2786 0.731801 -0.0259123 2.04053e-09 -1.35559e-09 1.15565e-10 -2.22167 -0.733487 0.20892 -2.03217e-16 0.0 -3.88251e-19 -8.25646 -38.7099 -5.94267 -0.110618 20.3539 0.0995857 -0.618132 4.44461 -19.3313 2.03217e-16 0.0 3.88251e-19 -1.16847 -2.23644 -4.8715 0.0779999 22.5635 -0.45994 -0.294377 -10.6847 -3.0404
33.7928 81.9857 33.4349 -330.369 -86.9845 337.204 3.3698 -1.13062 -3.52488 2.82975 -0.763506 -0.99432 -8.06883 2.12592 -4.42486 10.4619 -35.6605 -4.3515 -0.0 0.0 0.0 -0.0 0.0 0.0 3.10982e-14 6.70814e-13 -4.23881e-14 69.8161 -43.7421 -13.4507 -7.12437 -2.56852 12.5088 -0.321843 16.0336 2.31326 1.07584e-09 -1.83768e-09 2.28608e-09 1.89194e-09 -3.17863e-09 3.93341e-09 1.07585e-09 -1.83769e-09 2.28607e-09 7.73091 5.47488 0.417314 1.07584e-09 -1.83769e-09 2.28608e-09 2.90554 0.965183 0.102902 1.07585e-09 -1.83769e-09 2.28608e-09 10.2786 0.731801 0.0259123 1.07583e-09 -1.83769e-09 2.28608e-09 2.22167 -0.733487 -0.20892 3.11481e-14 6.70856e-13 -4.26797e-14 -79.2774 -4.87767 -2.34342 7.89001 -2.95451 -13.8996 3.46412 45.5629 -8.23937 2.51948e-09 -1.9011e-09 -1.72242e-10 4.33279e-09 -3.32638e-09 -3.88288e-10 2.51947e-09 -1.9011e-09 -1.72246e-10 -7.73091 5.47488 -0.417314 2.51948e-09 -1.9011e-09 -1.72242e-10 -2.90554 0.965183 -0.102902 2.51948e-09 -1.9011e-09 -1.72242e-10 -10.2786 0.731801 -0.0259123 2.51949e-09 -1.9011e-09 -1.72248e-10 -2.22167 -0.733487 0.20892 -2.03217e-16 0.0 -3.88251e-19 -7.87556 -38.4866 -5.78345 -0.111051 20.3267 0.0870649 -0.553085 4.6091 -19.2022 2.03217e-16 0.0 3.88251e-19 -0.865493 -2.3324 -4.85633 0.0870816 23.4015 -0.466907 -0.31881 -10.153 -3.25975
32.9725 81.9774 33.2535 -332.708 -87.0649 339.507 3.58563 -1.24142 -3.4273 2.8085 -0.799607 -0.967262 -8.12854 2.33136 -4.44043 10.4108 -35.9715 -4.39295 -0.0 0.0 0.0 -0.0 0.0 0.0 -1.72249e-14 5.33431e-13 -2.14346e-14 72.4682 -41.2052 -9.95372 -7.2052 -2.60741 12.6561 -0.236821 13.7905 1.975 1.12296e-09 -1.66313e-09 2.0278e-09 1.96778e-09 -2.87518e-09 3.4884e-09 1.12297e-09 -1.66313e-09 2.0278e-09 7.73091 5.47488 0.417314 1.12296e-09 -1.66313e-09 2.0278e-09 2.90554 0.965183 0.102902 1.12297e-09 -1.66313e-09 2.0278e-09 10.2786 0.731801 0.0259123 1.12296e-09 -1.66313e-09 2.02781e-09 2.22167 -0.733487 -0.20892 -1.71662e-14 5.33475e-13 -2.17731e-14 -79.2825 -2.4514 -3.24801 8.05803 -3.04164 -14.2075 3.21013 44.2927 -7.87958 2.17365e-09 -1.65494e-09 -1.54559e-10 3.7375e-09 -2.89169e-09 -3.43456e-10 2.17364e-09 -1.65494e-09 -1.54563e-10 -7.73091 5.47488 -0.417314 2.17365e-09 -1.65494e-09 -1.54559e-10 -2.90554 0.965183 -0.102902 2.17365e-09 -1.65494e-09 -1.5456e-10 -10.2786 0.731801 -0.0259123 2.17366e-09 -1.65494e-09 -1.54564e-10 -2.22167 -0.733487 0.20892 -2.03217e-16 0.0 -3.88251e-19 -7.46253 -38.2421 -5.64234 -0.111944 20.3717 0.0761502 -0.494876 4.76049 -19.0388 2.03217e-16 0.0 3.88251e-19 -0.545408 -2.46727 -4.8313 0.096853 24.3032 -0.475689 -0.334186 -9.55752 -3.47436
32.1487 81.982 33.0655 -335.333 -87.1624 342.086 3.81839 -1.35478 -3.31788 2.78149 -0.83764 -0.937138 -8.18541 2.53835 -4.45472 10.3577 -36.2721 -4.43424 -0.0 0.0 0.0 -0.0 0.0 0.0 -6.48946e-14 3.68611e-13 3.34284e-16 74.7639 -38.3384 -6.63832 -7.31748 -2.6627 12.8598 -0.162576 11.3749 1.61906 1.05668e-09 -1.27048e-09 1.49046e-09 1.84201e-09 -2.19387e-09 2.56332e-09 1.05669e-09 -1.27048e-09 1.49046e-09 7.73091 5.47488 0.417314 1.05668e-09 -1.27048e-09 1.49047e-09 2.90554 0.965183 0.102902 1.05669e-09 -1.27048e-09 1.49047e-09 10.2786 0.731801 0.0259123 1.05668e-09 -1.27048e-09 1.49048e-09 2.22167 -0.733487 -0.20892 -6.48417e-14 3.68653e-13 -4.34846e-17 -79.2062 0.0450607 -4.15126 8.24977 -3.14283 -14.559 2.96485 42.9743 -7.52332 1.53308e-09 -1.14032e-09 -8.97998e-11 2.63757e-09 -1.989e-09 -2.06298e-10 1.53306e-09 -1.14033e-09 -8.98017e-11 -7.73091 5.47488 -0.417314 1.53308e-09 -1.14033e-09 -8.97998e-11 -2.90554 0.965183 -0.102902 1.53308e-09 -1.14033e-09 -8.97995e-11 -10.2786 0.731801 -0.0259123 1.53308e-09 -1.14033e-09 -8.98037e-11 -2.22167 -0.733487 0.20892 -2.03217e-16 0.0 -3.88251e-19 -7.02288 -37.9741 -5.51453 -0.113133 20.4658 0.0666854 -0.44547 4.8919 -18.8483 2.03217e-16 0.0 3.88251e-19 -0.210497 -2.64412 -4.79357 0.107383 25.2611 -0.486042 -0.338848 -8.90523 -3.67566
31.3197 81.9941 32.872 -338.301 -87.2763 344.998 4.06775 -1.46984 -3.19658 2.74808 -0.877648 -0.904051 -8.24145 2.75452 -4.46787 10.3085 -36.5721 -4.47358 -0.0 0.0 0.0 -0.0 0.0 0.0 -8.58914e-14 2.49159e-13 1.39149e-14 76.6775 -35.2522 -3.52429 -7.47451 -2.74225 13.1433 -0.0973355 8.86358 1.25583 9.55197e-10 -9.95154e-10 1.22727e-09 1.65877e-09 -1.71632e-09 2.1112e-09 9.55202e-10 -9.95153e-10 1.22727e-09 7.73091 5.47488 0.417314 9.55196e-10 -9.95152e-10 1.22727e-09 2.90554 0.965183 0.102902 9.55207e-10 -9.95151e-10 1.22728e-09 10.2786 0.731801 0.0259123 9.55199e-10 -9.95151e-10 1.22729e-09 2.22167 -0.733487 -0.20892 -8.58644e-14 2.49195e-13 1.35174e-14 -79.0482 2.54582 -5.05108 8.46798 -3.26104 -14.9582 2.7355 41.6571 -7.18241 1.12781e-09 -8.80476e-10 -2.36382e-10 1.93606e-09 -1.52759e-09 -4.42648e-10 1.12779e-09 -8.80478e-10 -2.36382e-10 -7.73091 5.47488 -0.417314 1.12781e-09 -8.80481e-10 -2.36382e-10 -2.90554 0.965183 -0.102902 1.1278e-09 -8.80479e-10 -2.36381e-10 -10.2786 0.731801 -0.0259123 1.12781e-09 -8.80478e-10 -2.36385e-10 -2.22167 -0.733487 0.20892 -2.03217e-16 0.0 -3.88251e-19 -6.56221 -37.6805 -5.39531 -0.114478 20.5862 0.058523 -0.406621 4.99638 -18.6378 2.03217e-16 0.0 3.88251e-19 0.137049 -2.86606 -4.74026 0.118725 26.2678 -0.497715 -0.331699 -8.20304 -3.85513
30.4881 82.0133 32.6736 -341.697 -87.4018 348.33 4.33394 -1.587 -3.06318 2.70865 -0.919824 -0.867906 -8.29734 2.98291 -4.47946 10.2637 -36.8725 -4.50998 -0.0 0.0 0.0 -0.0 0.0 0.0 -6.41282e-14 1.89009e-13 1.61435e-14 78.2195 -31.9036 -0.572851 -7.67334 -2.84294 13.5051 -0.0421115 6.20444 0.875457 8.02428e-10 -9.10401e-10 1.46448e-09 1.39145e-09 -1.56949e-09 2.52282e-09 8.02433e-10 -9.104e-10 1.46448e-09 7.73091 5.47488 0.417314 8.02427e-10 -9.10399e-10 1.46448e-09 2.90554 0.965183 0.102902 8.02438e-10 -9.10398e-10 1.46449e-09 10.2786 0.731801 0.0259123 8.02429e-10 -9.10399e-10 1.4645e-09 2.22167 -0.733487 -0.20892 -6.41668e-14 1.89034e-13 1.5758e-14 -78.8088 5.07061 -5.95288 8.71269 -3.39552 -15.408 2.51774 40.327 -6.85132 1.11391e-09 -1.07263e-09 -8.33829e-10 1.89463e-09 -1.84648e-09 -1.47104e-09 1.11389e-09 -1.07263e-09 -8.33826e-10 -7.73091 5.47488 -0.417314 1.11391e-09 -1.07263e-09 -8.33829e-10 -2.90554 0.965183 -0.102902 1.1139e-09 -1.07263e-09 -8.33828e-10 -10.2786 0.731801 -0.0259123 1.11391e-09 -1.07262e-09 -8.33832e-10 -2.22167 -0.733487 0.20892 -2.03217e-16 0.0 -3.88251e-19 -6.07961 -37.362 -5.28977 -0.116075 20.7422 0.0518598 -0.378616 5.07326 -18.4025 2.03217e-16 0.0 3.88251e-19 0.498297 -3.13314 -4.67102 0.13103 27.3292 -0.510964 -0.312556 -7.44292 -4.01346
29.6537 82.0406 32.4699 -345.617 -87.5357 352.178 4.61718 -1.70649 -2.91776 2.66338 -0.964086 -0.82869 -8.35197 3.21913 -4.48958 10.2206 -37.1685 -4.5445 -0.0 0.0 0.0 -0.0 0.0 0.0 -1.65317e-14 1.51159e-13 1.20762e-14 79.3753 -28.2911 2.24062 -7.9079 -2.96194 13.9354 -0.00709031 3.38091 0.47495 5.6898e-10 -8.42735e-10 1.88081e-09 9.84861e-10 -1.45258e-09 3.24434e-09 5.68984e-10 -8.42736e-10 1.88081e-09 7.73091 5.47488 0.417314 5.6898e-10 -8.42735e-10 1.88081e-09 2.90554 0.965183 0.102902 5.68988e-10 -8.42734e-10 1.88081e-09 10.2786 0.731801 0.0259123 5.68978e-10 -8.42735e-10 1.88083e-09 2.22167 -0.733487 -0.20892 -1.66665e-14 1.51167e-13 1.17252e-14 -78.4841 7.63863 -6.86608 8.98148 -3.54473 -15.9056 2.30988 38.9667 -6.52611 1.20379e-09 -1.41849e-09 -1.68745e-09 2.0247e-09 -2.42855e-09 -2.94492e-09 1.20378e-09 -1.41849e-09 -1.68744e-09 -7.73091 5.47488 -0.417314 1.20379e-09 -1.41849e-09 -1.68745e-09 -2.90554 0.965183 -0.102902 1.20378e-09 -1.41849e-09 -1.68745e-09 -10.2786 0.731801 -0.0259123 1.20379e-09 -1.41848e-09 -1.68745e-09 -2.22167 -0.733487 0.20892 -2.03217e-16 0.0 -3.88251e-19 -5.57275 -37.0196 -5.19827 -0.117945 20.9407 0.046692 -0.360285 5.12569 -18.1407 2.03217e-16 0.0 3.88251e-19 0.874427 -3.44402 -4.58729 0.144459 28.4465 -0.525986 -0.282267 -6.62452 -4.15463
28.8175 82.0749 32.2627 -350.207 -87.672 356.69 4.91714 -1.82728 -2.76075 2.61133 -1.01006 -0.786624 -8.40469 3.4596 -4.49916 10.1802 -37.4617 -4.57851 -0.0 0.0 0.0 -0.0 0.0 0.0 3.33975e-14 1.32007e-13 5.0395e-15 80.1456 -24.5949 4.92102 -8.18616 -3.1073 14.4452 0.00378897 0.523492 0.0724808 3.13083e-10 -7.5744e-10 2.20813e-09 5.40279e-10 -1.30549e-09 3.81192e-09 3.13086e-10 -7.57442e-10 2.20812e-09 7.73091 5.47488 0.417314 3.13083e-10 -7.57442e-10 2.20814e-09 2.90554 0.965183 0.102902 3.13088e-10 -7.57441e-10 2.20813e-09 10.2786 0.731801 0.0259123 3.13077e-10 -7.57442e-10 2.20815e-09 2.22167 -0.733487 -0.20892 3.31727e-14 1.31999e-13 4.72463e-15 -78.074 10.1837 -7.79319 9.27325 -3.71038 -16.4472 2.11876 37.6214 -6.21734 1.26197e-09 -1.698e-09 -2.40433e-09 2.10399e-09 -2.89882e-09 -4.18251e-09 1.26197e-09 -1.698e-09 -2.40432e-09 -7.73091 5.47488 -0.417314 1.26197e-09 -1.69799e-09 -2.40433e-09 -2.90554 0.965183 -0.102902 1.26196e-09 -1.69799e-09 -2.40433e-09 -10.2786 0.731801 -0.0259123 1.26197e-09 -1.69799e-09 -2.40433e-09 -2.22167 -0.733487 0.20892 -2.03217e-16 0.0 -3.88251e-19 -5.04541 -36.6508 -5.10918 -0.11985 21.1559 0.0425792 -0.350947 5.15241 -17.8644 2.03217e-16 0.0 3.88251e-19 1.26356 -3.79967 -4.4889 0.159046 29.6056 -0.542425 -0.242104 -5.76624 -4.27521
27.9797 82.1174 32.0517 -355.603 -87.806 362.001 5.23347 -1.94832 -2.59255 2.55155 -1.05737 -0.741933 -8.45486 3.70074 -4.50912 10.1434 -37.7534 -4.61339 -0.0 0.0 0.0 -0.0 0.0 0.0 6.2159e-14 1.27951e-13 -1.63997e-15 80.568 -20.9956 7.48915 -8.51546 -3.28687 15.0455 -0.00614245 -2.2372 -0.31458 9.29644e-11 -6.19798e-10 2.17832e-09 1.58996e-10 -1.0681e-09 3.7617e-09 9.29684e-11 -6.19801e-10 2.17832e-09 7.73091 5.47488 0.417314 9.29654e-11 -6.19802e-10 2.17833e-09 2.90554 0.965183 0.102902 9.29691e-11 -6.19801e-10 2.17833e-09 10.2786 0.731801 0.0259123 9.29573e-11 -6.19801e-10 2.17834e-09 2.22167 -0.733487 -0.20892 6.18868e-14 1.27933e-13 -1.93815e-15 -77.5826 12.6402 -8.73473 9.58681 -3.89408 -17.0289 1.94877 36.3365 -5.93358 1.15298e-09 -1.69109e-09 -2.59157e-09 1.91021e-09 -2.88233e-09 -4.50202e-09 1.15299e-09 -1.69109e-09 -2.59156e-09 -7.73091 5.47488 -0.417314 1.15298e-09 -1.69109e-09 -2.59157e-09 -2.90554 0.965183 -0.102902 1.15297e-09 -1.69108e-09 -2.59157e-09 -10.2786 0.731801 -0.0259123 1.15298e-09 -1.69108e-09 -2.59157e-09 -2.22167 -0.733487 0.20892 -2.03217e-16 0.0 -3.88251e-19 -4.50176 -36.2534 -5.01107 -0.121558 21.3617 0.0390823 -0.34983 5.15217 -17.5857 2.03217e-16 0.0 3.88251e-19 1.6639 -4.20104 -4.3757 0.174777 30.7923 -0.559905 -0.193801 -4.88644 -4.37171
